# xmcd
#
# Track frame offsets: 
#        150
#        19712
#        37164
#        57185
#        78950
#        91732
#        109885
#        125843
#        138676
#        157325
#        171901
#        189366
#        210864
#        226612
#        244600
#        262882
#        281094
#        303956
#        322056
#
# Disc length: 4518 seconds
#
# Revision: 0
# Processed by: cddbd v1.5.1PL2 Copyright (c) Steve Scherf et al.
# Submitted via: ExactAudioCopy v0.95b3
#
DISCID=0511a413
DTITLE=Tiziano Ferro - 111 Centoundici
DYEAR=2003
DGENRE=R&B
TTITLE0=Centoundici
TTITLE1=Perverso
TTITLE2=Sere Nere
TTITLE3=Ti Voglio Bene
TTITLE4=In Bagno In Aeroporto
TTITLE5=Non Me Lo So Spiegare
TTITLE6=Mia Nonna
TTITLE7=10 Piegamenti!
TTITLE8=Temple Bar
TTITLE9=Giungo '84
TTITLE10=Eri Come L'Oro Ora Sei Come Loro
TTITLE11=Chi Non Ha Talento Insegna
TTITLE12=13 Anni
TTITLE13=Unknown14
TTITLE14=Unknown15
TTITLE15=Unknown16
TTITLE16=Unknown17
TTITLE17=Unknown18
TTITLE18=Unknown19
EXTD=
EXTT0=
EXTT1=
EXTT2=
EXTT3=
EXTT4=
EXTT5=
EXTT6=
EXTT7=
EXTT8=
EXTT9=
EXTT10=
EXTT11=
EXTT12=
EXTT13=
EXTT14=
EXTT15=
EXTT16=
EXTT17=
EXTT18=
PLAYORDER=
